<?xml version="1.0" encoding="utf-8"?>
<?xml-stylesheet type="text/xsl" href="rss1.xsl"?>
<rss version="2.0" xmlns:atom="http://www.w3.org/2005/Atom" xmlns:content="http://purl.org/rss/1.0/modules/content/" xmlns:dc="http://purl.org/dc/elements/1.1/" xmlns:media="http://search.yahoo.com/mrss/">
<channel>
 <title>Getty</title>
 <link>http://www.gettyimg.com/</link>
 <atom:link href="http://www.gettyimg.com/" rel="self" type="application/rss+xml" />

 
                <item>
                <title><![CDATA[【UPSCALED】Halsey - Without Me [4K AI Upscale HEVC 10-bit 50fps | PCM 24-bit | DD+ Dolby Atmos]]]></title>
                <link><![CDATA[https://sharemania.us/threads/halsey-without-me-4k-ai-upscale-hevc-10-bit-50fps-pcm-24-bit-dd-dolby-atmos.222792/]]></link>
                <description><![CDATA[<article>
<blockquote class="messageText SelectQuoteContainer ugc baseHtml">
<b><img src="https://images2.imgbox.com/80/5b/1PYByQyS_o.jpg" class="bbCodeImage LbImage" alt="[​IMG]" data-url="https://images2.imgbox.com/80/5b/1PYByQyS_o.jpg" style=""> <br>
<br>
Genre: <span style="color: #0059b3">Pop</span><br>
Year: <span style="color: #0059b3">2018</span><br>
Video Source: <span style="color: #0059b3">Vimeo, WebMaster</span><br>
Audio Source: <span style="color: #0059b3">Qobuz + Apple Music, thanks ZenKenShin</span></b><br>
<br>
"<b>Without Me</b>" is a song by American singer Halsey, released on October 4, 2018. Halsey wrote the song with Brittany Amaradio, Amy Allen, and Louis Bell; while production was handled by Bell and Dylan Bauld. It interpolates Justin Timberlake's "Cry Me a River" with Timberlake, Timbaland and Scott Storch credited as co-writers. It was released through Capitol Records as the lead single from Halsey's third studio album, <i>Manic</i>.<br>
<br>
"Without Me" reached number one on the <i>Billboard</i> Hot 100, becoming Halsey's first number-one single as a lead artist, and her second overall, following her feature on The Chainsmokers' song "Closer" in 2016. The song also reached number one in Greece and the top three of ten other countries, namely Australia, Canada, Hungary, Malaysia, Portugal, Slovakia, Ireland, New Zealand, Singapore, and the United Kingdom. It also reached the top five in the Czech Republic, Denmark, Estonia, Latvia, and Norway. Its music video, directed by Colin Tilley, was released on October 29, 2018. The track is certified Platinum or higher in eleven countries including 8× Platinum in Australia and 9x Platinum in Canada, and Diamond in Mexico and the US. The single was the number-one song of 2019 on pop radio in the US, the tenth biggest song overall of 2019 in the world, and the twelfth biggest song overall of the 2010s decade in the US.<br>
<br>
A vertical video for the song was released on Spotify on October 12, 2018, and posted on YouTube on January 9, 2019.<br>
The regular music video was directed by Colin Tilley and released on October 29, 2018. It features Halsey and a love interest go through the cycles of a toxic relationship. The singer said in a post to her Instagram, "The story is a reflection of a combination of relationships I've been in, or watched the people I love go through". She went on to say that, with the video, she is aiming to reassure people that it is not okay to be taken advantage of. The video features product placement by Beats and YSL.<br>
<br>
<b>Release Info</b><br>
The video track is upscaled to 4K with Topaz Video AI and encoded to HEVC 10-bit 50 fps.<br>
I've removed a part from the intro of the videotrack to match it with the album version.<br>
The PCM track is lossless (Qobuz HiRes, 24-bit), synced with Adobe Audition.<br>
The Dolby Atmos track is lossy (Dolby Digital Plus), synced by muxing.<br>
The timed lyrics are synced and edited to match the music video.<br>
Enable the subtitles to see the lyrics.<br>
<br>
<div class="ToggleTriggerAnchor bbCodeSpoilerContainer">
<button type="button" class="button bbCodeSpoilerButton ToggleTrigger Tooltip JsOnly" data-target="> .SpoilerTarget"><span>Spoiler: <span class="SpoilerTitle">Media Info</span></span></button>
<div class="SpoilerTarget bbCodeSpoilerText">
<div class="bbCodeBlock bbCodeCode">
<div class="type">Code:</div>
<pre>General
Unique ID                      : 325963438298732847641682467866439586167 (0xF53A465015ACE0CBF5D8B9803E841177)
Complete name                  : Halsey - Without Me.mkv
Format                         : Matroska
Format version                 : Version 4 / Version 2
File size                      : 793 MiB
Duration                       : 3 min 31 s
Overall bit rate               : 31.4 Mb/s
Frame rate                     : 49.934 FPS
Encoded date                   : 2023-06-14 09:55:46 UTC
Writing application            : mkvmerge v76.0 ('Celebration') 64-bit
Writing library                : libebml v1.4.4 + libmatroska v1.7.1

Video
ID                             : 1
Format                         : HEVC
Format/Info                    : High Efficiency Video Coding
Format profile                 : Main 10@L5.1@Main
Codec ID                       : V_MPEGH/ISO/HEVC
Duration                       : 3 min 31 s
Bit rate                       : 28.6 Mb/s
Width                          : 3 840 pixels
Height                         : 2 160 pixels
Display aspect ratio           : 16:9
Frame rate mode                : Variable
Frame rate                     : 49.934 FPS
Original frame rate            : 50.000 FPS
Color space                    : YUV
Chroma subsampling             : 4:2:0
Bit depth                      : 10 bits
Bits/(Pixel*Frame)             : 0.069
Stream size                    : 721 MiB (91%)
Language                       : English
Default                        : No
Forced                         : No
Color range                    : Limited
Color primaries                : BT.709
Transfer characteristics       : BT.709
Matrix coefficients            : BT.709

Audio #1
ID                             : 2
Format                         : PCM
Format settings                : Little / Signed
Codec ID                       : A_PCM/INT/LIT
Duration                       : 3 min 31 s
Bit rate mode                  : Constant
Bit rate                       : 2 117 kb/s
Channel(s)                     : 2 channels
Sampling rate                  : 44.1 kHz
Frame rate                     : 25.002 FPS (1764 SPF)
Bit depth                      : 24 bits
Stream size                    : 53.3 MiB (7%)
Language                       : English
Default                        : Yes
Forced                         : No

Audio #2
ID                             : 3
Format                         : E-AC-3 JOC
Format/Info                    : Enhanced AC-3 with Joint Object Coding
Commercial name                : Dolby Digital Plus with Dolby Atmos
Codec ID                       : A_EAC3
Duration                       : 3 min 23 s
Bit rate mode                  : Constant
Bit rate                       : 768 kb/s
Channel(s)                     : 6 channels
Channel layout                 : L R C LFE Ls Rs
Sampling rate                  : 48.0 kHz
Frame rate                     : 31.250 FPS (1536 SPF)
Compression mode               : Lossy
Delay relative to video        : -400 ms
Stream size                    : 18.6 MiB (2%)
Title                          : Dolby Digital Plus with Dolby Atmos
Language                       : English
Service kind                   : Complete Main
Default                        : No
Forced                         : No
Complexity index               : 16
Number of dynamic objects      : 15
Bed channel count              : 1 channel
Bed channel configuration      : LFE

Text
ID                             : 4
Format                         : UTF-8
Codec ID                       : S_TEXT/UTF8
Codec ID/Info                  : UTF-8 Plain Text
Duration                       : 3 min 2 s
Bit rate                       : 90 b/s
Frame rate                     : 0.295 FPS
Count of elements              : 54
Stream size                    : 2.03 KiB (0%)
Title                          : Lyrics
Language                       : English
Default                        : No
Forced                         : No</pre>
</div></div>
</div><br>
<div class="bbCodeBlock bbCodeVfcHH HiddenContent">
<div class="attribution type">Hidden Content:</div>
<blockquote>You must reply before you can see the hidden data contained here.</blockquote>
</div>
<div class="messageTextEndMarker">&nbsp;</div>
</blockquote>
</article>]]></description>
                <author><![CDATA[ADHDerby]]></author>
                </item>

                </channel></rss>